<svg width="17" height="23" viewBox="0 0 17 23" fill="none" xmlns="http://www.w3.org/2000/svg">
<path d="M7.57291 22.9583C7.45213 22.9582 7.33229 22.937 7.21875 22.8958C6.99973 22.8156 6.81397 22.6643 6.6912 22.466C6.56844 22.2676 6.51578 22.0339 6.54166 21.8021L7.34375 14.4167H1.20833C1.01909 14.417 0.833349 14.3657 0.671053 14.2684C0.508758 14.171 0.376039 14.0313 0.287152 13.8643C0.198266 13.6972 0.156569 13.5091 0.16654 13.3201C0.176511 13.1311 0.237773 12.9484 0.343747 12.7917L8.5625 0.499999C8.69248 0.307643 8.883 0.164223 9.1038 0.092509C9.32461 0.020795 9.56304 0.0248977 9.78125 0.104166C9.99102 0.182044 10.1701 0.3254 10.2921 0.51301C10.414 0.70062 10.4723 0.922511 10.4583 1.14583L9.65625 8.58333H15.7917C15.9809 8.58305 16.1666 8.63432 16.3289 8.73164C16.4912 8.82896 16.624 8.96866 16.7128 9.13572C16.8017 9.30278 16.8434 9.49091 16.8335 9.67988C16.8235 9.86886 16.7622 10.0515 16.6562 10.2083L8.4375 22.5C8.34194 22.6414 8.21313 22.7571 8.06237 22.837C7.91162 22.9169 7.74354 22.9586 7.57291 22.9583ZM3.15625 12.3333H8.5C8.64535 12.3337 8.78903 12.3644 8.92179 12.4236C9.05454 12.4828 9.17344 12.5692 9.27083 12.6771C9.36913 12.7865 9.44316 12.9154 9.48804 13.0554C9.53293 13.1955 9.54765 13.3434 9.53125 13.4896L9.0625 17.8125L13.8437 10.6667H8.5C8.353 10.6676 8.20749 10.6373 8.07301 10.578C7.93853 10.5186 7.81814 10.4315 7.71975 10.3222C7.62137 10.213 7.5472 10.0842 7.50215 9.94431C7.45709 9.80439 7.44216 9.65652 7.45833 9.51042L7.92708 5.1875L3.15625 12.3333Z" fill="#149211"/>
</svg>
